<svg width="91" height="20" viewBox="0 0 91 20" fill="none" xmlns="http://www.w3.org/2000/svg">
<path d="M1.824 4.296H4.056V8.712H6.792V10.464H4.056V18.6H1.824V10.464H0V8.712H1.824V4.296Z" fill="#1D2830"/>
<path d="M12.657 18.84C11.521 18.84 10.545 18.616 9.729 18.168C8.913 17.704 8.281 17.08 7.833 16.296C7.401 15.496 7.185 14.584 7.185 13.56C7.185 12.584 7.433 11.696 7.929 10.896C8.425 10.096 9.089 9.456 9.921 8.976C10.753 8.496 11.681 8.256 12.705 8.256C14.017 8.256 15.105 8.64 15.969 9.408C16.833 10.176 17.417 11.232 17.721 12.576L9.537 15.456L9.009 14.136L15.729 11.688L15.249 12C15.057 11.472 14.737 11.016 14.289 10.632C13.841 10.232 13.257 10.032 12.537 10.032C11.929 10.032 11.385 10.184 10.905 10.488C10.425 10.776 10.049 11.176 9.777 11.688C9.505 12.2 9.369 12.784 9.369 13.44C9.369 14.128 9.513 14.736 9.801 15.264C10.089 15.776 10.481 16.184 10.977 16.488C11.489 16.776 12.065 16.92 12.705 16.92C13.137 16.92 13.553 16.84 13.953 16.68C14.369 16.52 14.753 16.312 15.105 16.056L16.137 17.712C15.641 18.048 15.081 18.32 14.457 18.528C13.849 18.736 13.249 18.84 12.657 18.84Z" fill="#1D2830"/>
<path d="M23.2057 18.84C22.2777 18.84 21.4297 18.64 20.6617 18.24C19.9097 17.84 19.3097 17.256 18.8617 16.488C18.4297 15.704 18.2137 14.752 18.2137 13.632C18.2137 12.528 18.4457 11.576 18.9097 10.776C19.3737 9.96 19.9897 9.336 20.7577 8.904C21.5417 8.472 22.3977 8.256 23.3257 8.256C24.2537 8.256 25.0377 8.472 25.6777 8.904C26.3177 9.32 26.8058 9.816 27.1418 10.392L26.9977 10.776L27.2137 8.664H29.2778V18.6H27.0457V16.008L27.2857 16.584C27.2217 16.744 27.0778 16.952 26.8538 17.208C26.6458 17.448 26.3577 17.696 25.9897 17.952C25.6377 18.208 25.2297 18.424 24.7657 18.6C24.3017 18.76 23.7817 18.84 23.2057 18.84ZM23.8057 16.992C24.3657 16.992 24.8697 16.888 25.3177 16.68C25.7657 16.472 26.1337 16.184 26.4217 15.816C26.7257 15.432 26.9337 14.976 27.0457 14.448V12.504C26.9177 12.024 26.6937 11.608 26.3737 11.256C26.0537 10.888 25.6697 10.608 25.2217 10.416C24.7737 10.208 24.2777 10.104 23.7337 10.104C23.1417 10.104 22.5977 10.248 22.1017 10.536C21.6057 10.824 21.2057 11.224 20.9017 11.736C20.6137 12.248 20.4697 12.848 20.4697 13.536C20.4697 14.176 20.6217 14.76 20.9257 15.288C21.2297 15.816 21.6377 16.232 22.1497 16.536C22.6617 16.84 23.2137 16.992 23.8057 16.992Z" fill="#1D2830"/>
<path d="M33.6922 8.664L33.8843 10.896L33.7882 10.704C34.1562 9.952 34.6763 9.36 35.3483 8.928C36.0363 8.496 36.8203 8.28 37.7003 8.28C38.2603 8.28 38.7563 8.368 39.1883 8.544C39.6203 8.72 39.9723 8.976 40.2443 9.312C40.5323 9.632 40.7162 10.032 40.7962 10.512L40.6763 10.584C41.0603 9.864 41.5883 9.304 42.2603 8.904C42.9482 8.488 43.6683 8.28 44.4202 8.28C45.3963 8.28 46.1643 8.56 46.7243 9.12C47.3003 9.664 47.5963 10.376 47.6123 11.256V18.6H45.3802V12.048C45.3642 11.536 45.2362 11.112 44.9963 10.776C44.7723 10.424 44.3722 10.232 43.7962 10.2C43.2202 10.2 42.7003 10.376 42.2363 10.728C41.7883 11.08 41.4363 11.536 41.1803 12.096C40.9243 12.64 40.7883 13.232 40.7723 13.872V18.6H38.5403V12.048C38.5243 11.536 38.3883 11.112 38.1323 10.776C37.8923 10.424 37.4842 10.232 36.9082 10.2C36.3162 10.2 35.7963 10.376 35.3483 10.728C34.9003 11.08 34.5483 11.536 34.2923 12.096C34.0523 12.656 33.9323 13.256 33.9323 13.896V18.6H31.7003V8.664H33.6922Z" fill="#1D2830"/>
<path d="M48.9369 17.328C48.9369 16.976 49.0649 16.68 49.3209 16.44C49.5929 16.184 49.8889 16.056 50.2089 16.056C50.4969 16.056 50.7689 16.184 51.0249 16.44C51.2969 16.68 51.4329 16.976 51.4329 17.328C51.4329 17.712 51.2969 18.024 51.0249 18.264C50.7689 18.488 50.4969 18.6 50.2089 18.6C49.8889 18.6 49.5929 18.488 49.3209 18.264C49.0649 18.024 48.9369 17.712 48.9369 17.328Z" fill="#1D2830"/>
<path d="M53.4722 18.6V10.656H51.7682V8.664H53.4722V4.464C53.4722 3.024 53.7922 1.92 54.4322 1.152C55.0882 0.384 56.0482 0 57.3122 0C57.6482 0 58.0162 0.0479999 58.4162 0.144C58.8322 0.24 59.1922 0.400001 59.4962 0.624001L58.5602 2.232C58.4162 2.088 58.2562 1.992 58.0802 1.944C57.9042 1.88 57.7282 1.848 57.5522 1.848C56.9602 1.848 56.5042 2.048 56.1842 2.448C55.8642 2.848 55.7042 3.528 55.7042 4.488V8.664H58.5362V10.656H55.7042V18.6H53.4722ZM60.4562 0.0239997H62.6882V18.6H60.4562V0.0239997Z" fill="#1D2830"/>
<path d="M64.2741 13.536C64.2741 12.544 64.5061 11.648 64.9701 10.848C65.4501 10.048 66.1061 9.416 66.9381 8.952C67.7701 8.488 68.7141 8.256 69.7701 8.256C70.8581 8.256 71.8101 8.488 72.6261 8.952C73.4421 9.416 74.0741 10.048 74.5221 10.848C74.9701 11.648 75.1941 12.544 75.1941 13.536C75.1941 14.528 74.9701 15.432 74.5221 16.248C74.0741 17.048 73.4341 17.68 72.6021 18.144C71.7861 18.608 70.8341 18.84 69.7461 18.84C68.6901 18.84 67.7461 18.624 66.9141 18.192C66.0981 17.744 65.4501 17.128 64.9701 16.344C64.5061 15.544 64.2741 14.608 64.2741 13.536ZM66.5061 13.56C66.5061 14.2 66.6501 14.784 66.9381 15.312C67.2261 15.824 67.6101 16.232 68.0901 16.536C68.5861 16.84 69.1301 16.992 69.7221 16.992C70.3461 16.992 70.8981 16.84 71.3781 16.536C71.8741 16.232 72.2581 15.824 72.5301 15.312C72.8021 14.784 72.9381 14.2 72.9381 13.56C72.9381 12.92 72.8021 12.344 72.5301 11.832C72.2581 11.304 71.8741 10.888 71.3781 10.584C70.8981 10.264 70.3461 10.104 69.7221 10.104C69.1141 10.104 68.5621 10.264 68.0661 10.584C67.5861 10.904 67.2021 11.328 66.9141 11.856C66.6421 12.368 66.5061 12.936 66.5061 13.56Z" fill="#1D2830"/>
<path d="M82.8315 8.664L85.7595 15.36L85.3275 15.408L88.0635 8.664H90.2475L85.6875 19.2L82.4955 12.384L79.5915 19.2L74.9835 8.664H77.1675L80.2635 15.672L79.4955 15.528L81.7035 10.392L80.9115 8.664H82.8315Z" fill="#1D2830"/>
</svg>
